# xmcd
#
# Track frame offsets:
#	150
#	16081
#	33204
#	50649
#	67896
#	82731
#	98818
#	116428
#	132569
#	147619
#	161244
#
# Disc length: 2372 seconds
#
# Revision: 0
# Processed by: cddbd v1.5.2PL0 Copyright (c) Steve Scherf et al.
# Submitted via: EasyCDDAExtractor 9.1.0.1
#
DISCID=8e09420b
DTITLE=ΚΩΣΤΑΣ ΚΑΡΑΦΩΤΗΣ - ΗΡΘΕΣ ΕΣΥ
DYEAR=2008
DGENRE=ΛΑΙΚΑ
TTITLE0=ΑΓΓΕΛΟΙ
TTITLE1=ΗΡΘΕΣ ΕΣΥ
TTITLE2=ΕΙΣΑΙ ΜΙΑ ΦΩΤΙΑ
TTITLE3=ΑΜΑΡΤΙΕΣ
TTITLE4=ΚΑΜΙΑ
TTITLE5=ΞΕΝΟΙ
TTITLE6=Σ' ΑΝΑΖΗΤΩ
TTITLE7=ΔΕ Μ' ΑΦΗΝΕΙΣ
TTITLE8=ΝΑ 'ΧΑ ΔΥΟ ΖΩΕΣ
TTITLE9=ΤΙ ΖΗΤΑΩ
TTITLE10=ΑΓΓΕΛΟΙ (MASTER TEMPO REMIX)
EXTD=
EXTT0=
EXTT1=
EXTT2=
EXTT3=
EXTT4=
EXTT5=
EXTT6=
EXTT7=
EXTT8=
EXTT9=
EXTT10=
PLAYORDER=
